<?xml version="1.0" encoding="UTF-8"?>
<svg id="Layer_1" xmlns="http://www.w3.org/2000/svg" version="1.1" viewBox="0 0 792 612">
  <!-- Generator: Adobe Illustrator 30.2.1, SVG Export Plug-In . SVG Version: 2.1.1 Build 1)  -->
  <defs>
    <style>
      .st0 {
        fill: #f0edf5;
      }

      .st1 {
        fill: #3b2a5e;
      }

      .st2 {
        fill: #4e3a7a;
      }

      .st3 {
        fill: #6b4fa0;
      }

      .st4 {
        fill: #9b7fcc;
      }

      .st5 {
        fill: #7a5faa;
      }

      .st6 {
        fill: #5c4490;
      }

      .st7 {
        fill: #2a1845;
      }

      .st8 {
        fill: #c9b8e8;
      }
    </style>
  </defs>

  <g id="Generative_Object">
    <path class="st7" d="M507.15,437.85l-68.5-26.56,21.09-172.38,64.77-53.41c.25-.4,1.39-.16,1.77.06.34.19-.2.93.84,1.78-8.31,83.95-9.01,169.07-19.98,250.51Z"/>
    <path class="st6" d="M288.12,466.8c-.95-.21-3.02-.7-4.44-2.3-4.47-87.45-16.39-174.58-18.35-260.11l51.89,61.76,35.67,210.07-64.77-9.41Z"/>
    <path class="st0" d="M405.04,50.8l53.26,179.2,62.77-50.52c.31,2.44,2.82,3.71,3.45,6.02l-64.77,53.41-21.09,172.38,68.5,26.56c-.39,2.88-2.76,3.18-3.66,5.86l-66.67-24.58-33.14,140.46c-2.5.24-5.11.48-7.6.09l31.11-134.02-64.98,56.54,31.59,78.53c-3.06.5-6.28.86-8.75-1.4l-29.99-74.41-61.03-9.6c-3.73-4.2-7.35-2.36-5.9-8.52l64.77,9.41-35.67-210.07-51.89-61.76c-.06-2.64.61-5.37,3.61-6.17l50.5,58.2,28.77-89.05-79.16,26.53c-.3-2.7.34-5.91,2.18-8.28l80-27.36,34.7-105.08c1.86-1.6,5.65-1.04,7.85-1.2l-35.05,108.18,90.56,66.83-51.99-177.16c2.33.1,5.73-.88,7.72.98ZM430.77,411.59l21.34-173.24-95.83-70.86-31.57,97.4,35.41,208.73,70.66-62.04Z"/>
    <path class="st2" d="M521.06,179.48l-62.77,50.52-53.26-179.2c40.94,38.35,78.13,82.67,119.24,123.93-1.39,3.01-2.84,3.59-3.21,4.75Z"/>
    <path class="st8" d="M397.32,49.82l51.99,177.16-90.56-66.83,35.05-108.18c0-.87.87-1.34,1.36-1.99.57-.76,1.4-.2,2.17-.16Z"/>
    <path class="st6" d="M503.49,443.71c.66.24,1.97,1.27,1.83,1.96-.12.6-93.18,108.45-101.64,113.92l33.14-140.46,66.67,24.58Z"/>
    <path class="st4" d="M385.94,53.18l-34.7,105.08-80,27.36c34.29-44.12,75.22-89.59,114.7-132.45Z"/>
    <path class="st3" d="M396.07,559.68c.15.72-.5.73-.89,1.71-.24.61-1-.39-1.4-.66l-31.59-78.53,64.98-56.54-31.11,134.02Z"/>
    <path class="st5" d="M268.95,198.22c-.8-1.02-1.69-3.65.12-4.32l79.16-26.53-28.77,89.05-50.5-58.2Z"/>
    <path class="st1" d="M385.04,559.34c-.38-.09-1.86.66-2.63-.12-28.9-29.48-62.17-54.39-88.38-83.9l61.03,9.6,29.99,74.41Z"/>
    <polygon class="st2" points="430.77 411.59 360.11 473.63 324.71 264.9 356.28 167.5 452.11 238.35 430.77 411.59"/>
  </g>
</svg>
